<?xml version="1.0" standalone="no"?>
<!DOCTYPE svg PUBLIC "-//W3C//DTD SVG 20010904//EN"
 "http://www.w3.org/TR/2001/REC-SVG-20010904/DTD/svg10.dtd">
<svg version="1.0" xmlns="http://www.w3.org/2000/svg"
 width="1000.000000pt" height="1000.000000pt" viewBox="0 0 1000.000000 1000.000000"
 preserveAspectRatio="xMidYMid meet">
<metadata>
Created by potrace 1.14, written by Peter Selinger 2001-2017
</metadata>
<g transform="translate(0.000000,1000.000000) scale(0.100000,-0.100000)"
fill="#000000" stroke="none">
<path d="M2661 8539 c-350 -60 -620 -591 -671 -1319 -32 -446 61 -935 247
-1303 l36 -72 -6 -175 c-14 -399 -111 -904 -241 -1252 -20 -53 -36 -109 -36
-126 0 -35 2 -37 264 -397 108 -148 222 -306 254 -349 174 -242 454 -439 780
-547 136 -44 163 -45 206 -2 34 33 42 82 22 122 -21 39 -46 55 -121 77 -33 9
-103 35 -155 57 -273 117 -427 246 -626 522 -59 83 -127 177 -151 209 l-43 60
70 133 c215 415 497 726 751 829 63 26 188 54 237 54 26 0 27 -2 27 -51 0 -45
4 -54 33 -80 44 -39 85 -38 170 5 37 18 112 48 167 67 93 30 110 33 235 33
121 1 140 -1 186 -22 68 -31 110 -76 126 -135 17 -64 -6 -176 -56 -278 -46
-94 -47 -130 -2 -175 42 -42 97 -47 141 -12 26 20 105 167 105 194 0 7 4 15 8
18 11 7 17 -127 15 -344 -2 -219 -25 -370 -79 -527 -41 -118 -39 -148 7 -188
l30 -25 163 7 c109 4 200 2 274 -7 124 -14 158 -8 187 36 21 33 19 77 -10 166
-61 191 -91 438 -81 658 7 154 30 345 38 320 3 -8 12 -45 21 -83 22 -90 71
-205 105 -246 22 -26 37 -34 74 -38 44 -5 50 -3 83 30 46 46 46 82 0 180 -48
100 -72 217 -56 275 33 120 176 180 381 160 89 -8 252 -59 349 -107 68 -35 90
-37 131 -16 40 21 60 53 60 97 l0 38 58 1 c262 6 422 -35 592 -151 63 -43 161
-143 208 -212 83 -121 154 -311 187 -495 27 -156 33 -139 -130 -371 -157 -225
-243 -320 -380 -417 -104 -75 -245 -145 -391 -195 -132 -45 -141 -51 -161 -98
-18 -42 -3 -92 34 -122 38 -30 96 -25 214 16 280 97 529 260 693 454 30 36
177 240 325 454 189 271 271 396 271 415 0 14 -18 73 -41 131 -117 306 -205
718 -239 1125 -19 231 -17 247 44 376 100 210 178 480 210 729 66 504 -14
1061 -207 1445 -168 337 -417 476 -683 385 -96 -34 -134 -64 -199 -162 -84
-128 -227 -290 -360 -409 -141 -127 -141 -126 -168 -101 -12 11 -76 40 -142
65 -466 175 -859 247 -1284 234 -278 -8 -499 -46 -726 -124 -120 -41 -310
-131 -352 -167 -17 -14 -34 -26 -38 -26 -4 0 -33 21 -64 47 -212 178 -378 356
-486 521 -42 64 -72 97 -103 116 -94 57 -227 83 -331 65z m-33 -577 c0 -32 10
-104 22 -160 74 -366 265 -686 531 -891 l87 -68 -87 -42 c-326 -161 -560 -418
-606 -665 -4 -20 -11 -39 -16 -42 -23 -14 -124 251 -163 427 -39 177 -50 302
-43 499 12 317 82 600 224 902 25 54 47 98 48 98 1 0 3 -26 3 -58z m4683 -312
c150 -448 158 -904 24 -1304 -18 -55 -43 -123 -55 -150 l-22 -48 -22 63 c-84
239 -286 441 -587 590 l-87 42 62 45 c124 92 264 245 353 387 92 146 186 397
214 570 l12 80 30 -65 c16 -36 51 -130 78 -210z"/>
<path d="M3849 4735 c-52 -17 -115 -73 -135 -121 -8 -18 -14 -59 -14 -91 0
-142 121 -243 259 -215 165 34 235 228 129 356 -57 69 -154 98 -239 71z"/>
<path d="M5835 4701 c-80 -36 -135 -122 -135 -212 0 -54 48 -139 98 -174 58
-40 158 -48 218 -17 80 41 124 111 124 198 0 163 -161 271 -305 205z"/>
<path d="M4710 3219 c-120 -11 -230 -35 -336 -75 -51 -19 -104 -34 -118 -34
-63 0 -106 -47 -106 -114 0 -50 28 -77 154 -150 l114 -66 39 -83 c53 -109 115
-177 205 -222 39 -19 79 -35 89 -35 17 0 19 -9 19 -109 l0 -109 -32 -12 c-18
-7 -83 -15 -145 -17 -176 -8 -275 30 -411 160 -77 75 -196 230 -247 324 -69
125 -82 141 -124 154 -84 25 -159 -53 -133 -139 16 -51 111 -209 192 -317 89
-118 238 -261 326 -312 186 -109 389 -128 628 -58 84 24 91 25 130 10 22 -8
70 -21 106 -29 321 -71 581 26 816 306 130 155 264 375 264 434 0 77 -80 131
-151 101 -29 -12 -44 -30 -79 -93 -75 -138 -162 -256 -265 -361 -84 -85 -113
-108 -180 -140 -80 -38 -80 -38 -210 -38 -99 0 -145 4 -192 19 l-63 19 0 102
0 101 55 18 c64 20 138 76 178 133 29 42 76 147 77 170 0 7 62 44 139 82 80
41 148 81 160 97 25 31 27 83 6 123 -18 35 -33 42 -110 52 -33 4 -98 19 -145
33 -120 38 -246 63 -380 75 -126 12 -144 12 -270 0z"/>
<path d="M4424 1771 c-55 -34 -66 -114 -21 -162 31 -33 176 -97 280 -124 127
-32 226 -39 338 -25 160 20 392 111 417 163 30 63 15 125 -39 152 -41 22 -75
16 -174 -28 -219 -99 -417 -96 -643 8 -85 40 -114 43 -158 16z"/>
</g>
</svg>
